HIERARCHY
ROOT mixamorig:Hips
{
	OFFSET 0.000000 201.639420 0.000000
	CHANNELS 6 Xposition Yposition Zposition Xrotation Yrotation Zrotation
	JOINT mixamorig:Spine
	{
		OFFSET 0.006200 19.524994 -2.481800
		CHANNELS 3 Xrotation Yrotation Zrotation
		JOINT mixamorig:Spine1
		{
			OFFSET -0.000900 22.835007 -2.825400
			CHANNELS 3 Xrotation Yrotation Zrotation
			JOINT mixamorig:Spine2
			{
				OFFSET -0.020600 26.552490 -3.193300
				CHANNELS 3 Xrotation Yrotation Zrotation
				JOINT mixamorig:Neck
				{
					OFFSET -0.060000 30.701813 1.352200
					CHANNELS 3 Xrotation Yrotation Zrotation
					JOINT mixamorig:Head
					{
						OFFSET -0.087200 22.547607 3.670900
						CHANNELS 3 Xrotation Yrotation Zrotation
						JOINT mixamorig:HeadTop_End
						{
							OFFSET -0.830600 40.355194 7.893500
							CHANNELS 3 Xrotation Yrotation Zrotation
							End Site
							{
								OFFSET 0.000000 30.592346 0.000000
							}
						}
						JOINT mixamorig:RightEye
						{
							OFFSET -6.302100 18.118591 16.197100
							CHANNELS 3 Xrotation Yrotation Zrotation
							End Site
							{
								OFFSET 0.000000 30.592346 0.000000
							}
						}
						JOINT mixamorig:LeftEye
						{
							OFFSET 6.741500 18.382690 16.401899
							CHANNELS 3 Xrotation Yrotation Zrotation
							End Site
							{
								OFFSET 0.000000 30.592346 0.000000
							}
						}
					}
				}
				JOINT mixamorig:LeftShoulder
				{
					OFFSET 11.924900 18.230499 1.425400
					CHANNELS 3 Xrotation Yrotation Zrotation
					JOINT mixamorig:LeftArm
					{
						OFFSET 25.435989 -0.697632 -5.229300
						CHANNELS 3 Xrotation Yrotation Zrotation
						JOINT mixamorig:LeftForeArm
						{
							OFFSET 54.684776 0.000000 0.000000
							CHANNELS 3 Xrotation Yrotation Zrotation
							JOINT mixamorig:LeftHand
							{
								OFFSET 55.098175 0.000000 0.000000
								CHANNELS 3 Xrotation Yrotation Zrotation
								JOINT mixamorig:LeftHandMiddle1
								{
									OFFSET 23.369751 0.000000 0.000000
									CHANNELS 3 Xrotation Yrotation Zrotation
									JOINT mixamorig:LeftHandMiddle2
									{
										OFFSET 6.378677 0.000000 0.000000
										CHANNELS 3 Xrotation Yrotation Zrotation
										JOINT mixamorig:LeftHandMiddle3
										{
											OFFSET 6.148331 0.000000 0.000000
											CHANNELS 3 Xrotation Yrotation Zrotation
											JOINT mixamorig:LeftHandMiddle4
											{
												OFFSET 6.582504 0.000000 0.000000
												CHANNELS 3 Xrotation Yrotation Zrotation
												End Site
												{
													OFFSET -1.168900 6.395691 1.028606
												}
											}
										}
									}
								}
								JOINT mixamorig:LeftHandThumb1
								{
									OFFSET 7.235672 -3.848206 5.434273
									CHANNELS 3 Xrotation Yrotation Zrotation
									JOINT mixamorig:LeftHandThumb2
									{
										OFFSET 6.568451 -3.792297 3.792300
										CHANNELS 3 Xrotation Yrotation Zrotation
										JOINT mixamorig:LeftHandThumb3
										{
											OFFSET 6.063080 -3.500519 3.500518
											CHANNELS 3 Xrotation Yrotation Zrotation
											JOINT mixamorig:LeftHandThumb4
											{
												OFFSET 4.793182 -2.767334 2.767349
												CHANNELS 3 Xrotation Yrotation Zrotation
												End Site
												{
													OFFSET 0.101639 6.054260 1.275483
												}
											}
										}
									}
								}
								JOINT mixamorig:LeftHandIndex1
								{
									OFFSET 23.101074 -0.309540 4.992809
									CHANNELS 3 Xrotation Yrotation Zrotation
									JOINT mixamorig:LeftHandIndex2
									{
										OFFSET 6.226883 0.000000 0.000000
										CHANNELS 3 Xrotation Yrotation Zrotation
										JOINT mixamorig:LeftHandIndex3
										{
											OFFSET 6.094330 0.000000 0.000000
											CHANNELS 3 Xrotation Yrotation Zrotation
											JOINT mixamorig:LeftHandIndex4
											{
												OFFSET 5.482605 0.000000 0.000000
												CHANNELS 3 Xrotation Yrotation Zrotation
												End Site
												{
													OFFSET -1.427902 5.233032 0.797164
												}
											}
										}
									}
								}
								JOINT mixamorig:LeftHandRing1
								{
									OFFSET 22.299240 0.021149 -3.964172
									CHANNELS 3 Xrotation Yrotation Zrotation
									JOINT mixamorig:LeftHandRing2
									{
										OFFSET 6.321869 0.000000 0.000000
										CHANNELS 3 Xrotation Yrotation Zrotation
										JOINT mixamorig:LeftHandRing3
										{
											OFFSET 5.899796 0.000000 0.000000
											CHANNELS 3 Xrotation Yrotation Zrotation
											JOINT mixamorig:LeftHandRing4
											{
												OFFSET 6.517899 0.000000 0.000000
												CHANNELS 3 Xrotation Yrotation Zrotation
												End Site
												{
													OFFSET -1.637299 6.232208 0.980890
												}
											}
										}
									}
								}
								JOINT mixamorig:LeftHandPinky1
								{
									OFFSET 20.463791 -0.302338 -8.562233
									CHANNELS 3 Xrotation Yrotation Zrotation
									JOINT mixamorig:LeftHandPinky2
									{
										OFFSET 6.908646 0.000000 0.000000
										CHANNELS 3 Xrotation Yrotation Zrotation
										JOINT mixamorig:LeftHandPinky3
										{
											OFFSET 4.622849 0.000000 0.000000
											CHANNELS 3 Xrotation Yrotation Zrotation
											JOINT mixamorig:LeftHandPinky4
											{
												OFFSET 5.216080 0.000000 0.000000
												CHANNELS 3 Xrotation Yrotation Zrotation
												End Site
												{
													OFFSET -0.606308 5.116241 0.814926
												}
											}
										}
									}
								}
							}
						}
					}
				}
				JOINT mixamorig:RightShoulder
				{
					OFFSET -12.001300 18.284088 1.348900
					CHANNELS 3 Xrotation Yrotation Zrotation
					JOINT mixamorig:RightArm
					{
						OFFSET -25.308500 -0.751312 -5.164599
						CHANNELS 3 Xrotation Yrotation Zrotation
						JOINT mixamorig:RightForeArm
						{
							OFFSET -54.684429 0.000000 0.000000
							CHANNELS 3 Xrotation Yrotation Zrotation
							JOINT mixamorig:RightHand
							{
								OFFSET -55.150291 0.000000 0.000000
								CHANNELS 3 Xrotation Yrotation Zrotation
								JOINT mixamorig:RightHandMiddle1
								{
									OFFSET -23.317566 0.000000 0.000000
									CHANNELS 3 Xrotation Yrotation Zrotation
									JOINT mixamorig:RightHandMiddle2
									{
										OFFSET -6.378403 0.000000 0.000000
										CHANNELS 3 Xrotation Yrotation Zrotation
										JOINT mixamorig:RightHandMiddle3
										{
											OFFSET -6.148193 0.000000 0.000000
											CHANNELS 3 Xrotation Yrotation Zrotation
											JOINT mixamorig:RightHandMiddle4
											{
												OFFSET -6.583389 0.000000 0.000000
												CHANNELS 3 Xrotation Yrotation Zrotation
												End Site
												{
													OFFSET 1.171692 6.395905 1.029786
												}
											}
										}
									}
								}
								JOINT mixamorig:RightHandThumb1
								{
									OFFSET -7.190521 -3.860474 5.435846
									CHANNELS 3 Xrotation Yrotation Zrotation
									JOINT mixamorig:RightHandThumb2
									{
										OFFSET -6.567429 -3.791718 3.791708
										CHANNELS 3 Xrotation Yrotation Zrotation
										JOINT mixamorig:RightHandThumb3
										{
											OFFSET -6.062469 -3.500153 3.500166
											CHANNELS 3 Xrotation Yrotation Zrotation
											JOINT mixamorig:RightHandThumb4
											{
												OFFSET -4.792618 -2.767029 2.767022
												CHANNELS 3 Xrotation Yrotation Zrotation
												End Site
												{
													OFFSET -0.100327 6.053253 1.276754
												}
											}
										}
									}
								}
								JOINT mixamorig:RightHandIndex1
								{
									OFFSET -23.048981 -0.310791 4.992554
									CHANNELS 3 Xrotation Yrotation Zrotation
									JOINT mixamorig:RightHandIndex2
									{
										OFFSET -6.227539 0.000000 0.000000
										CHANNELS 3 Xrotation Yrotation Zrotation
										JOINT mixamorig:RightHandIndex3
										{
											OFFSET -6.095047 0.000000 0.000000
											CHANNELS 3 Xrotation Yrotation Zrotation
											JOINT mixamorig:RightHandIndex4
											{
												OFFSET -5.484772 0.000000 0.000000
												CHANNELS 3 Xrotation Yrotation Zrotation
												End Site
												{
													OFFSET 1.420593 5.237305 0.797056
												}
											}
										}
									}
								}
								JOINT mixamorig:RightHandRing1
								{
									OFFSET -22.246323 0.020569 -3.963762
									CHANNELS 3 Xrotation Yrotation Zrotation
									JOINT mixamorig:RightHandRing2
									{
										OFFSET -6.322128 0.000000 0.000000
										CHANNELS 3 Xrotation Yrotation Zrotation
										JOINT mixamorig:RightHandRing3
										{
											OFFSET -5.900024 0.000000 0.000000
											CHANNELS 3 Xrotation Yrotation Zrotation
											JOINT mixamorig:RightHandRing4
											{
												OFFSET -6.518356 0.000000 0.000000
												CHANNELS 3 Xrotation Yrotation Zrotation
												End Site
												{
													OFFSET 1.636398 6.232697 0.982186
												}
											}
										}
									}
								}
								JOINT mixamorig:RightHandPinky1
								{
									OFFSET -20.411011 -0.303314 -8.561701
									CHANNELS 3 Xrotation Yrotation Zrotation
									JOINT mixamorig:RightHandPinky2
									{
										OFFSET -6.907349 0.000000 0.000000
										CHANNELS 3 Xrotation Yrotation Zrotation
										JOINT mixamorig:RightHandPinky3
										{
											OFFSET -4.623840 0.000000 0.000000
											CHANNELS 3 Xrotation Yrotation Zrotation
											JOINT mixamorig:RightHandPinky4
											{
												OFFSET -5.218353 0.000000 0.000000
												CHANNELS 3 Xrotation Yrotation Zrotation
												End Site
												{
													OFFSET 0.602097 5.118835 0.816273
												}
											}
										}
									}
								}
							}
						}
					}
				}
			}
		}
	}
	JOINT mixamorig:LeftUpLeg
	{
		OFFSET 18.168400 -13.561905 -0.039000
		CHANNELS 3 Xrotation Yrotation Zrotation
		JOINT mixamorig:LeftLeg
		{
			OFFSET 0.577358 -80.825211 -3.695000
			CHANNELS 3 Xrotation Yrotation Zrotation
			JOINT mixamorig:LeftFoot
			{
				OFFSET -0.577356 -83.370262 -6.520700
				CHANNELS 3 Xrotation Yrotation Zrotation
				JOINT mixamorig:LeftToeBase
				{
					OFFSET 0.750401 -20.798306 25.135401
					CHANNELS 3 Xrotation Yrotation Zrotation
					JOINT mixamorig:LeftToe_End
					{
						OFFSET -0.000500 0.001200 19.917799
						CHANNELS 3 Xrotation Yrotation Zrotation
						End Site
						{
							OFFSET 0.000000 19.917805 0.000000
						}
					}
				}
			}
		}
	}
	JOINT mixamorig:RightUpLeg
	{
		OFFSET -18.162500 -13.585098 -0.041000
		CHANNELS 3 Xrotation Yrotation Zrotation
		JOINT mixamorig:RightLeg
		{
			OFFSET -0.595024 -80.945297 -3.631900
			CHANNELS 3 Xrotation Yrotation Zrotation
			JOINT mixamorig:RightFoot
			{
				OFFSET 0.595024 -83.218193 -6.561200
				CHANNELS 3 Xrotation Yrotation Zrotation
				JOINT mixamorig:RightToeBase
				{
					OFFSET -0.753601 -20.807106 25.115000
					CHANNELS 3 Xrotation Yrotation Zrotation
					JOINT mixamorig:RightToe_End
					{
						OFFSET 0.000299 0.001700 19.918200
						CHANNELS 3 Xrotation Yrotation Zrotation
						End Site
						{
							OFFSET 0.000000 19.918203 0.000000
						}
					}
				}
			}
		}
	}
}
MOTION
Frames: 4
Frame Time: 0.033333
23.270845 190.526260 -9.269398 -0.907316 -13.044162 -1.581576 4.852203 0.219973 0.286750 10.456100 0.525428 1.225276 10.456086 0.518911 1.228607 0.750410 1.562569 -0.042485 2.672185 -12.756017 -0.569613 -0.000000 0.000002 -0.000001 -0.000000 0.000002 -0.000001 -0.000000 0.000002 -0.000001 1.527580 -7.797817 -8.119658 -1.954637 15.062437 -60.785364 -0.000005 -38.507613 -0.000010 -24.507175 20.518739 25.078491 -1.159633 -0.028336 -31.104951 1.422570 4.196140 -37.441495 0.045263 0.789840 -6.559641 -0.000000 0.000001 -0.000004 10.103901 11.012679 6.620487 3.704986 13.018993 -0.000531 1.504704 23.675387 4.016130 -0.000002 0.000001 0.000000 -3.781375 -1.405621 -43.126129 0.423470 2.381734 -20.160748 0.071310 0.990424 -8.236160 0.000000 0.000000 0.000000 1.505131 4.301531 -38.555718 1.971558 4.827367 -44.411761 0.323335 2.089111 -17.594009 -0.000000 0.000000 -0.000000 4.038189 7.478014 -38.305344 1.989599 0.757826 -44.781900 0.323335 2.089117 -17.594014 0.000000 0.000000 -0.000000 1.990009 2.381359 4.298217 10.072953 1.180980 68.730268 0.000059 72.993617 -0.000074 -16.870367 -0.340511 -25.077965 0.524382 -2.982736 35.927888 1.194714 -3.902086 34.035236 -1.939210 -1.930381 12.156768 -0.000001 0.000000 0.000004 1.143921 -8.433298 1.265029 5.552058 -19.079777 -0.875052 -1.270673 -3.270917 -2.575569 0.000001 0.000000 -0.000000 0.552932 -4.262185 58.903374 0.568597 -2.758547 23.289313 0.011224 -0.395811 3.249657 -0.000000 0.000002 -0.000001 1.592458 -4.432943 39.504178 1.471196 -4.282051 37.908243 0.353456 -2.192717 18.311688 -0.000002 -0.000000 0.000001 2.045325 -4.929383 45.048974 1.932871 -4.814901 43.724771 0.786160 -3.216632 27.461754 -0.000002 0.000001 0.000001 -20.288377 8.119419 8.042732 40.736389 -2.282363 -6.725295 -21.107308 14.574370 4.378617 0.082409 0.000155 -0.124151 -0.000000 -0.000001 -0.000000 -32.220922 -2.399775 -19.553534 61.310626 0.716139 1.165809 -13.386465 12.567834 9.370824 -3.433422 0.000003 0.000002 0.000000 0.000001 -0.000000 
23.804295 191.675293 -8.868963 -0.619366 -12.146932 -2.025131 4.947603 -0.243737 0.254465 10.737500 -0.423272 1.127805 10.737128 -0.443030 1.125356 0.373020 1.586520 -0.151694 0.524453 -10.353862 -1.439377 -0.000000 0.000000 -0.000000 -0.000000 0.000000 -0.000000 -0.000000 0.000000 -0.000000 1.578515 -7.749958 -9.199884 -0.173836 14.094895 -60.019830 0.000003 -39.881116 0.000017 -21.188362 20.188132 20.141979 -0.927194 0.220541 -29.988277 1.478516 4.268011 -38.199561 0.056631 0.883121 -7.338469 -0.000001 -0.000001 0.000003 11.050573 13.134515 7.227087 3.587131 13.308923 0.080168 1.506241 23.670593 4.028680 0.000003 -0.000002 0.000001 -3.380884 -1.353409 -41.207624 0.473648 2.514066 -21.335539 0.081125 1.056000 -8.785788 -0.000000 0.000001 -0.000002 1.436232 4.213877 -37.627731 2.027311 4.883418 -45.070397 0.348446 2.166654 -18.270331 -0.000000 0.000001 -0.000004 3.916714 7.430926 -37.369058 2.045515 0.813521 -45.436580 0.348448 2.166666 -18.270339 0.000000 0.000001 -0.000001 1.931844 2.480763 5.641453 8.198840 3.389187 66.827561 0.000025 72.455849 -0.000031 -14.252627 -0.416023 -20.901139 0.609386 -3.100246 35.923964 1.259427 -3.995994 34.974827 3.503069 -0.970392 15.712087 0.000002 0.000000 -0.000000 1.162454 -8.802258 1.221603 5.553502 -19.071493 -0.875092 -1.405721 -3.393354 -2.619444 0.000001 0.000000 0.000000 0.596865 -4.254677 58.381650 0.599707 -2.829646 23.927488 0.052964 -0.858254 7.060931 -0.000001 -0.000000 0.000000 1.593098 -4.433710 39.512351 1.534800 -4.362276 38.752270 0.480115 -2.543390 21.376405 0.000003 -0.000002 0.000002 2.045907 -4.929956 45.055739 1.992014 -4.875762 44.425070 0.934900 -3.487481 30.005223 0.000000 -0.000000 -0.000000 -19.688567 8.341224 8.183459 38.854002 -2.227021 -6.427555 -20.124312 13.652891 4.359238 0.106287 0.000270 -0.159701 0.000000 0.000000 0.000000 -31.788015 -1.390251 -18.835394 58.498685 0.382954 1.067635 -14.231468 12.314156 11.877407 0.318047 0.000008 0.000002 -0.000000 0.000001 0.000000 
23.547058 192.983978 -8.703526 -0.671791 -11.260504 -2.540221 5.037178 -0.650332 0.367980 10.935732 -1.251214 1.296370 10.934685 -1.270934 1.287088 -0.126987 1.613569 -0.218641 -1.641116 -7.532368 -2.121428 0.000000 -0.000003 0.000001 0.000000 -0.000003 0.000001 0.000000 -0.000003 0.000001 1.628639 -7.231005 -10.224669 1.183673 12.374891 -59.257184 0.000018 -41.310938 0.000028 -16.952967 19.943008 15.308541 -0.691245 0.532560 -29.087522 1.653454 4.480771 -40.492817 0.011103 0.391680 -3.247369 -0.000002 -0.000001 -0.000001 11.753688 14.276826 7.635015 3.519065 13.402642 0.155265 1.502559 23.657009 4.059844 0.000004 0.000002 -0.000001 -2.925797 -1.322330 -38.620430 0.605730 2.828674 -24.168881 0.022202 0.553667 -4.592956 -0.000002 0.000000 -0.000000 1.382557 4.143503 -36.891085 2.199819 5.048996 -47.062944 0.226826 1.756157 -14.718055 0.000000 -0.000001 0.000002 3.820844 7.392138 -36.625831 2.218435 0.978021 -47.416884 0.226826 1.756166 -14.718069 0.000000 0.000001 -0.000001 1.821395 2.171788 7.271714 6.928181 5.025049 64.440151 0.000035 72.247337 -0.000037 -12.435244 -0.683775 -16.504373 0.740245 -3.291406 36.265053 1.404353 -4.195032 37.003837 5.709782 -0.353764 15.939930 -0.000005 -0.000001 0.000001 1.297824 -9.219836 1.043135 5.558814 -19.029684 -0.871911 -1.539545 -3.591513 -2.695922 -0.000001 -0.000000 0.000000 0.692797 -4.241209 57.210399 0.681137 -3.006226 25.526971 0.068786 -0.977678 8.049715 0.000001 -0.000000 0.000003 1.618081 -4.463743 39.834493 1.676135 -4.532212 40.574722 0.488162 -2.563849 21.557139 0.000005 -0.000000 -0.000001 2.068940 -4.952745 45.322987 2.122235 -5.004692 45.937124 0.944050 -3.503238 30.155231 -0.000004 0.000000 0.000000 -18.624505 8.325741 8.473015 36.577282 -2.081607 -6.076014 -18.798301 13.136932 3.945415 0.101746 0.000241 -0.152898 0.000000 0.000000 -0.000000 -28.880779 -1.302424 -17.343911 51.107054 -0.132261 0.829920 -13.409587 9.396403 12.833618 0.800159 -0.000008 -0.000002 0.000001 0.000000 -0.000000 
22.711849 194.128876 -8.557679 -0.916081 -10.967511 -3.060572 4.951409 -0.839646 0.558353 10.779390 -1.640495 1.587794 10.779031 -1.654927 1.575299 -0.743951 1.641189 -0.241578 -3.676188 -4.408320 -2.596077 -0.000001 -0.000001 0.000000 -0.000001 -0.000001 0.000000 -0.000001 -0.000001 0.000000 1.627872 -6.025301 -11.082816 2.179450 10.069266 -58.885151 -0.000007 -42.722365 -0.000022 -12.914941 19.502657 10.980669 -0.458809 0.877509 -28.297212 1.975827 4.831699 -44.462510 0.002978 -0.202926 1.681782 0.000001 0.000001 0.000001 12.202170 14.586634 7.856384 3.539664 13.381741 0.167029 1.480489 23.647102 4.103830 0.000000 0.000001 0.000001 -2.439081 -1.361408 -35.083311 0.855159 3.328450 -28.810680 0.000052 -0.026526 0.219810 -0.000000 0.000001 -0.000002 1.336693 4.081838 -36.251564 2.511571 5.320929 -50.511609 0.114449 1.252702 -10.439685 0.000002 -0.000002 0.000002 3.738012 7.357464 -35.980586 2.530598 1.248082 -50.843491 0.114450 1.252707 -10.439697 -0.000001 -0.000005 -0.000000 1.645309 1.478745 9.053429 6.307063 6.096176 61.685508 -0.000030 71.565780 0.000036 -11.208237 -1.348582 -12.634966 0.925081 -3.560137 37.016999 1.644710 -4.495380 40.175432 -1.785796 -1.995525 12.770850 -0.000001 -0.000001 -0.000000 1.523835 -9.649709 0.781268 5.565557 -18.982600 -0.868429 -1.623148 -3.884180 -2.813108 0.000000 -0.000000 0.000001 0.855034 -4.238621 55.301142 0.825612 -3.291292 28.156755 0.037683 -0.724411 5.955236 0.000001 -0.000001 -0.000001 1.672523 -4.528026 40.529093 1.907631 -4.788470 43.423375 0.374800 -2.256159 18.861682 0.000001 0.000000 0.000000 2.118925 -5.001506 45.899284 2.332415 -5.199111 48.300366 0.811970 -3.265727 27.918185 0.000002 -0.000000 0.000001 -17.393987 8.265679 8.906297 34.439415 -1.893432 -5.725643 -17.577796 13.323001 3.247329 0.119018 0.000629 -0.178419 -0.000000 -0.000001 0.000000 -24.287239 -1.229950 -15.420009 41.098809 -0.399056 0.543864 -10.879493 5.663094 12.622345 0.081412 0.000001 0.000002 -0.000000 -0.000001 0.000000 
